<svg width="24" height="24" viewBox="0 0 24 24" fill="none" xmlns="http://www.w3.org/2000/svg">
<path d="M13.0103 13.3154H10.3402C8.92439 13.3169 7.56701 13.8801 6.56587 14.8812C5.56473 15.8824 5.00159 17.2397 5 18.6556C4.99991 18.7971 5.0448 18.935 5.12819 19.0493C5.21158 19.1637 5.32915 19.2485 5.46393 19.2917C7.4911 19.8162 9.58223 20.0515 11.6753 19.9906C13.7683 20.0515 15.8594 19.8162 17.8866 19.2917C18.0214 19.2485 18.1389 19.1637 18.2223 19.0493C18.3057 18.935 18.3506 18.7971 18.3505 18.6556C18.3489 17.2397 17.7858 15.8824 16.7847 14.8812C15.7835 13.8801 14.4261 13.3169 13.0103 13.3154Z" fill="black"/>
<path d="M11.6758 11.9803C13.7452 11.9803 15.3472 9.66396 15.3472 7.67139C15.3472 6.69768 14.9604 5.76385 14.2719 5.07533C13.5834 4.38681 12.6496 4 11.6758 4C10.7021 4 9.76829 4.38681 9.07977 5.07533C8.39125 5.76385 8.00444 6.69768 8.00444 7.67139C8.00444 9.66396 9.60651 11.9803 11.6758 11.9803Z" fill="black"/>
</svg>
